<svg id="Capa_1" enable-background="new 0 0 512 512" height="512" viewBox="0 0 512 512" width="512" xmlns="http://www.w3.org/2000/svg"><g><path d="m289.763 193.506c4.15 0 7.515-3.364 7.515-7.515s-3.365-7.515-7.515-7.515h-67.526c-4.15 0-7.515 3.364-7.515 7.515s3.364 7.515 7.515 7.515z"/><path d="m488.242 197.918h-6.568c-1.042-14.262-12.971-25.55-27.495-25.55h-18.603c-4.74-19.338-22.328-33.639-42.784-33.639h-206.67c-4.15 0-7.515 3.364-7.515 7.515s3.365 7.515 7.515 7.515h206.67c15.06 0 27.769 11.761 28.932 26.776l5.472 70.552c.306 3.94 3.597 6.933 7.484 6.933.195 0 .392-.007.59-.022 4.137-.321 7.232-3.936 6.911-8.073l-4.849-62.526h16.848c6.919 0 12.548 5.629 12.548 12.548v102.603c0 6.919-5.629 12.548-12.548 12.548h-6.944l-2.73-35.198c-.321-4.138-3.943-7.249-8.073-6.911-4.137.321-7.232 3.936-6.911 8.073l3.427 44.184c.667 8.606-2.194 16.835-8.058 23.17-5.863 6.336-13.846 9.825-22.478 9.825h-57.772c-25.423 0-38.433-13.682-51.015-26.914-10.392-10.929-21.138-22.229-37.626-22.229s-27.234 11.3-37.626 22.229c-12.582 13.232-25.591 26.914-51.015 26.914h-57.771c-8.632 0-16.615-3.489-22.478-9.825s-8.725-14.565-8.058-23.17l11.223-144.712c1.164-15.015 13.873-26.776 28.932-26.776h36.856c4.15 0 7.515-3.364 7.515-7.515s-3.364-7.515-7.515-7.515h-36.856c-20.456 0-38.044 14.301-42.784 33.639h-18.603c-14.523 0-26.452 11.288-27.495 25.55h-6.568c-13.099.001-23.757 10.658-23.757 23.759v59.985c0 13.101 10.658 23.758 23.758 23.758h6.635c1.44 13.863 13.191 24.707 27.428 24.707h6.198c.591 10.539 4.823 20.678 12.061 28.498 8.614 9.307 20.827 14.646 33.508 14.646h57.771c31.871 0 48.525-17.514 61.907-31.586 10.35-10.885 17.179-17.557 26.734-17.557s16.384 6.671 26.734 17.557c13.382 14.072 30.035 31.586 61.907 31.586h57.772c12.681 0 24.895-5.339 33.508-14.646 7.237-7.82 11.47-17.959 12.061-28.498h6.198c14.237 0 25.988-10.845 27.428-24.707h6.635c13.1 0 23.758-10.658 23.758-23.758v-59.985c-.001-13.101-10.659-23.758-23.759-23.758zm-442.97 104.632v-37.016c0-4.151-3.364-7.515-7.515-7.515s-7.515 3.364-7.515 7.515v24.856h-6.485c-4.813 0-8.728-3.916-8.728-8.729v-59.985c0-4.813 3.915-8.729 8.728-8.729h6.485v22.528c0 4.151 3.364 7.515 7.515 7.515s7.515-3.364 7.515-7.515v-35.53c0-6.919 5.629-12.548 12.548-12.548h16.848l-9.904 127.701h-6.944c-6.918 0-12.548-5.629-12.548-12.548zm451.699-20.889c0 4.813-3.915 8.729-8.728 8.729h-6.485v-77.443h6.485c4.813 0 8.728 3.916 8.728 8.729z"/></g></svg>