<svg width="26" height="57" viewBox="0 0 26 57" fill="none" xmlns="http://www.w3.org/2000/svg">
<path fill-rule="evenodd" clip-rule="evenodd" d="M2.57987 12.8616V27.8769C2.57987 33.6243 7.23394 38.2782 12.9786 38.2782C18.7225 38.2782 23.3773 33.622 23.3773 27.8769V12.8616C23.3773 7.11421 18.7232 2.46036 12.9786 2.46036C7.23467 2.46036 2.57987 7.11647 2.57987 12.8616ZM0.269043 12.8616C0.269043 5.84092 5.95775 0.149536 12.9786 0.149536C19.9979 0.149536 25.6881 5.83638 25.6881 12.8616V27.8769C25.6881 34.8976 19.9994 40.589 12.9786 40.589C5.9593 40.589 0.269043 34.9021 0.269043 27.8769V12.8616Z" fill="#E3E3E3"/>
<path fill-rule="evenodd" clip-rule="evenodd" d="M11.8232 9.39777C11.8232 8.75693 12.3361 8.23743 12.9787 8.23743C13.6168 8.23743 14.1341 8.75849 14.1341 9.39777V14.0096C14.1341 14.6504 13.6212 15.1699 12.9787 15.1699C12.3405 15.1699 11.8232 14.6488 11.8232 14.0096V9.39777Z" fill="#E3E3E3"/>
<path fill-rule="evenodd" clip-rule="evenodd" d="M12.9789 54.2106L21.5247 45.6648C21.9759 45.2135 22.7075 45.2135 23.1587 45.6648C23.6099 46.116 23.6099 46.8475 23.1587 47.2988L13.7959 56.6616C13.5702 56.8872 13.2745 57 12.9789 57C12.6832 57 12.3875 56.8872 12.1619 56.6616L2.77152 47.2713C2.3203 46.8201 2.3203 46.0885 2.77152 45.6373C3.22273 45.1861 3.9543 45.1861 4.40552 45.6373L12.9789 54.2106Z" fill="#E3E3E3"/>
</svg>
